P3

4 4
255
0 0 0
33 33 33
0 0 0
170 170 170
0 0 0
143 143 143
0 0 0
0 0 0
0 0 0
0 0 0
63 63 63
0 0 0
170 170 170
0 0 0
0 0 0
255 255 255
